<?xml version="1.0" encoding="UTF-8" ?>
<svg version="1.1" width="19" height="12" xmlns="http://www.w3.org/2000/svg" shape-rendering="crispEdges">
<rect x="13" y="0" width="1" height="1" fill="#111111" />
<rect x="14" y="0" width="1" height="1" fill="#111111" />
<rect x="15" y="0" width="1" height="1" fill="#111111" />
<rect x="16" y="0" width="1" height="1" fill="#111111" />
<rect x="17" y="0" width="1" height="1" fill="#111111" />
<rect x="11" y="1" width="1" height="1" fill="#111111" />
<rect x="12" y="1" width="1" height="1" fill="#111111" />
<rect x="13" y="1" width="1" height="1" fill="#FFFFFF" />
<rect x="14" y="1" width="1" height="1" fill="#FFFFFF" />
<rect x="15" y="1" width="1" height="1" fill="#FFFFFF" />
<rect x="16" y="1" width="1" height="1" fill="#FFFFFF" />
<rect x="17" y="1" width="1" height="1" fill="#FFFFFF" />
<rect x="18" y="1" width="1" height="1" fill="#111111" />
<rect x="9" y="2" width="1" height="1" fill="#111111" />
<rect x="10" y="2" width="1" height="1" fill="#111111" />
<rect x="11" y="2" width="1" height="1" fill="#FFFFFF" />
<rect x="12" y="2" width="1" height="1" fill="#FFFFFF" />
<rect x="13" y="2" width="1" height="1" fill="#FFFFFF" />
<rect x="17" y="2" width="1" height="1" fill="#FFFFFF" />
<rect x="18" y="2" width="1" height="1" fill="#111111" />
<rect x="7" y="3" width="1" height="1" fill="#111111" />
<rect x="8" y="3" width="1" height="1" fill="#111111" />
<rect x="9" y="3" width="1" height="1" fill="#FFFFFF" />
<rect x="10" y="3" width="1" height="1" fill="#FFFFFF" />
<rect x="11" y="3" width="1" height="1" fill="#FFFFFF" />
<rect x="17" y="3" width="1" height="1" fill="#FFFFFF" />
<rect x="18" y="3" width="1" height="1" fill="#111111" />
<rect x="5" y="4" width="1" height="1" fill="#111111" />
<rect x="6" y="4" width="1" height="1" fill="#111111" />
<rect x="7" y="4" width="1" height="1" fill="#FFFFFF" />
<rect x="8" y="4" width="1" height="1" fill="#FFFFFF" />
<rect x="9" y="4" width="1" height="1" fill="#FFFFFF" />
<rect x="17" y="4" width="1" height="1" fill="#FFFFFF" />
<rect x="18" y="4" width="1" height="1" fill="#111111" />
<rect x="3" y="5" width="1" height="1" fill="#111111" />
<rect x="4" y="5" width="1" height="1" fill="#111111" />
<rect x="5" y="5" width="1" height="1" fill="#FFFFFF" />
<rect x="6" y="5" width="1" height="1" fill="#FFFFFF" />
<rect x="7" y="5" width="1" height="1" fill="#FFFFFF" />
<rect x="17" y="5" width="1" height="1" fill="#FFFFFF" />
<rect x="18" y="5" width="1" height="1" fill="#111111" />
<rect x="1" y="6" width="1" height="1" fill="#111111" />
<rect x="2" y="6" width="1" height="1" fill="#111111" />
<rect x="3" y="6" width="1" height="1" fill="#FFFFFF" />
<rect x="4" y="6" width="1" height="1" fill="#FFFFFF" />
<rect x="5" y="6" width="1" height="1" fill="#FFFFFF" />
<rect x="17" y="6" width="1" height="1" fill="#FFFFFF" />
<rect x="18" y="6" width="1" height="1" fill="#111111" />
<rect x="0" y="7" width="1" height="1" fill="#111111" />
<rect x="1" y="7" width="1" height="1" fill="#FFFFFF" />
<rect x="2" y="7" width="1" height="1" fill="#FFFFFF" />
<rect x="3" y="7" width="1" height="1" fill="#FFFFFF" />
<rect x="17" y="7" width="1" height="1" fill="#FFFFFF" />
<rect x="18" y="7" width="1" height="1" fill="#111111" />
<rect x="0" y="8" width="1" height="1" fill="#111111" />
<rect x="1" y="8" width="1" height="1" fill="#FFFFFF" />
<rect x="17" y="8" width="1" height="1" fill="#FFFFFF" />
<rect x="18" y="8" width="1" height="1" fill="#111111" />
<rect x="0" y="9" width="1" height="1" fill="#111111" />
<rect x="1" y="9" width="1" height="1" fill="#FFFFFF" />
<rect x="16" y="9" width="1" height="1" fill="#FFFFFF" />
<rect x="17" y="9" width="1" height="1" fill="#FFFFFF" />
<rect x="18" y="9" width="1" height="1" fill="#111111" />
<rect x="0" y="10" width="1" height="1" fill="#111111" />
<rect x="1" y="10" width="1" height="1" fill="#FFFFFF" />
<rect x="2" y="10" width="1" height="1" fill="#FFFFFF" />
<rect x="3" y="10" width="1" height="1" fill="#FFFFFF" />
<rect x="4" y="10" width="1" height="1" fill="#FFFFFF" />
<rect x="5" y="10" width="1" height="1" fill="#FFFFFF" />
<rect x="6" y="10" width="1" height="1" fill="#FFFFFF" />
<rect x="7" y="10" width="1" height="1" fill="#FFFFFF" />
<rect x="8" y="10" width="1" height="1" fill="#FFFFFF" />
<rect x="9" y="10" width="1" height="1" fill="#FFFFFF" />
<rect x="10" y="10" width="1" height="1" fill="#FFFFFF" />
<rect x="11" y="10" width="1" height="1" fill="#FFFFFF" />
<rect x="12" y="10" width="1" height="1" fill="#FFFFFF" />
<rect x="13" y="10" width="1" height="1" fill="#FFFFFF" />
<rect x="14" y="10" width="1" height="1" fill="#FFFFFF" />
<rect x="15" y="10" width="1" height="1" fill="#FFFFFF" />
<rect x="16" y="10" width="1" height="1" fill="#FFFFFF" />
<rect x="17" y="10" width="1" height="1" fill="#111111" />
<rect x="1" y="11" width="1" height="1" fill="#111111" />
<rect x="2" y="11" width="1" height="1" fill="#111111" />
<rect x="3" y="11" width="1" height="1" fill="#111111" />
<rect x="4" y="11" width="1" height="1" fill="#111111" />
<rect x="5" y="11" width="1" height="1" fill="#111111" />
<rect x="6" y="11" width="1" height="1" fill="#111111" />
<rect x="7" y="11" width="1" height="1" fill="#111111" />
<rect x="8" y="11" width="1" height="1" fill="#111111" />
<rect x="9" y="11" width="1" height="1" fill="#111111" />
<rect x="10" y="11" width="1" height="1" fill="#111111" />
<rect x="11" y="11" width="1" height="1" fill="#111111" />
<rect x="12" y="11" width="1" height="1" fill="#111111" />
<rect x="13" y="11" width="1" height="1" fill="#111111" />
<rect x="14" y="11" width="1" height="1" fill="#111111" />
<rect x="15" y="11" width="1" height="1" fill="#111111" />
<rect x="16" y="11" width="1" height="1" fill="#111111" />
</svg>